<?xml version="1.0" standalone="no"?>
<!DOCTYPE svg PUBLIC "-//W3C//DTD SVG 20010904//EN"
 "http://www.w3.org/TR/2001/REC-SVG-20010904/DTD/svg10.dtd">
<svg version="1.0" xmlns="http://www.w3.org/2000/svg"
 width="512.000000pt" height="512.000000pt" viewBox="0 0 512.000000 512.000000"
 preserveAspectRatio="xMidYMid meet">
<metadata>
Created by potrace 1.11, written by Peter Selinger 2001-2013
</metadata>
<g transform="translate(0.000000,512.000000) scale(0.100000,-0.100000)"
fill="#000000" stroke="none">
<path d="M0 2560 l0 -2560 2560 0 2560 0 0 2560 0 2560 -2560 0 -2560 0 0
-2560z m3343 1837 c182 -48 348 -141 483 -270 94 -88 159 -186 198 -296 l31
-86 3 -287 c4 -326 6 -319 -71 -252 -93 79 -321 167 -516 199 -155 26 -439 17
-573 -18 -185 -49 -332 -137 -439 -263 -135 -160 -192 -397 -160 -671 15 -132
42 -227 93 -333 34 -69 57 -101 132 -176 78 -78 106 -98 186 -137 140 -68 231
-88 436 -94 318 -10 597 43 822 156 44 22 82 37 86 34 10 -10 7 -393 -4 -463
-25 -156 -83 -276 -190 -392 -169 -185 -418 -310 -705 -354 -126 -20 -463 -14
-605 11 -417 71 -745 242 -1016 528 -255 269 -402 584 -457 972 -95 671 102
1294 545 1721 241 232 569 393 953 468 144 29 227 34 450 32 200 -3 229 -5
318 -29z"/>
</g>
</svg>
