<?xml version="1.0" standalone="no"?>
<!DOCTYPE svg PUBLIC "-//W3C//DTD SVG 20010904//EN"
 "http://www.w3.org/TR/2001/REC-SVG-20010904/DTD/svg10.dtd">
<svg version="1.0" xmlns="http://www.w3.org/2000/svg"
 width="512.000000pt" height="512.000000pt" viewBox="0 0 512.000000 512.000000"
 preserveAspectRatio="xMidYMid meet">
<metadata>
Created by potrace 1.11, written by Peter Selinger 2001-2013
</metadata>
<g transform="translate(0.000000,512.000000) scale(0.100000,-0.100000)"
fill="#000000" stroke="none">
<path d="M2733 4420 c-125 -16 -319 -59 -431 -96 -165 -54 -408 -179 -532
-272 -353 -267 -607 -691 -685 -1147 -39 -224 -37 -552 5 -780 68 -379 220
-670 489 -935 265 -261 563 -412 951 -482 160 -28 486 -36 625 -14 373 57 692
260 821 521 68 140 74 173 74 452 l0 243 -80 -40 c-227 -114 -505 -167 -824
-157 -198 6 -291 25 -420 86 -198 93 -333 258 -395 480 -45 162 -52 417 -15
561 68 270 277 467 579 546 137 36 420 45 576 19 195 -32 423 -120 516 -199
77 -67 75 -74 71 252 l-3 287 -31 86 c-39 110 -104 208 -198 296 -135 129
-301 222 -483 270 -89 24 -118 26 -318 29 -121 1 -253 -2 -292 -6z"/>
</g>
</svg>
