<?xml version="1.0" standalone="no"?>
<!DOCTYPE svg PUBLIC "-//W3C//DTD SVG 20010904//EN"
 "http://www.w3.org/TR/2001/REC-SVG-20010904/DTD/svg10.dtd">
<svg version="1.0" xmlns="http://www.w3.org/2000/svg"
 width="512.000000pt" height="512.000000pt" viewBox="0 0 512.000000 512.000000"
 preserveAspectRatio="xMidYMid meet">
<metadata>
Created by potrace 1.11, written by Peter Selinger 2001-2013
</metadata>
<g transform="translate(0.000000,512.000000) scale(0.100000,-0.100000)"
fill="#000000" stroke="none">
<path d="M0 2560 l0 -2560 2560 0 2560 0 0 2560 0 2560 -2560 0 -2560 0 0
-2560z m3233 1855 c248 -37 502 -175 655 -357 68 -80 136 -220 156 -320 19
-94 23 -568 5 -568 -6 0 -29 15 -52 34 -102 83 -325 171 -507 201 -128 20
-397 20 -521 -1 -180 -31 -328 -100 -449 -211 -158 -146 -230 -331 -230 -592
0 -349 113 -601 335 -750 155 -103 308 -141 576 -141 314 0 568 53 789 165 27
14 52 25 55 25 3 0 5 -103 5 -228 0 -195 -3 -240 -20 -306 -67 -261 -306 -494
-628 -610 -306 -110 -794 -98 -1163 29 -439 151 -799 466 -994 870 -124 257
-186 548 -186 880 -1 696 334 1310 882 1623 248 141 532 232 814 260 144 15
371 13 478 -3z"/>
</g>
</svg>
